G04 #@! TF.GenerationSoftware,KiCad,Pcbnew,(5.1.4)-1*
G04 #@! TF.CreationDate,2019-10-23T00:39:07+02:00*
G04 #@! TF.ProjectId,RF_transmitter,52465f74-7261-46e7-936d-69747465722e,rev?*
G04 #@! TF.SameCoordinates,Original*
G04 #@! TF.FileFunction,Soldermask,Bot*
G04 #@! TF.FilePolarity,Negative*
%FSLAX46Y46*%
G04 Gerber Fmt 4.6, Leading zero omitted, Abs format (unit mm)*
G04 Created by KiCad (PCBNEW (5.1.4)-1) date 2019-10-23 00:39:07*
%MOMM*%
%LPD*%
G04 APERTURE LIST*
%ADD10O,1.800000X1.500000*%
%ADD11C,1.700000*%
%ADD12C,2.500000*%
%ADD13C,1.800000*%
%ADD14C,2.000000*%
%ADD15R,1.700000X1.700000*%
%ADD16O,3.000000X1.800000*%
%ADD17R,3.000000X1.800000*%
%ADD18O,1.700000X1.700000*%
%ADD19C,2.200000*%
G04 APERTURE END LIST*
D10*
X165179000Y-42672000D03*
X162179000Y-42672000D03*
X159179000Y-42672000D03*
D11*
X114790220Y-71356220D03*
X117330220Y-71356220D03*
X119870220Y-71356220D03*
X122410220Y-71356220D03*
X124950220Y-71356220D03*
X127490220Y-71356220D03*
X130030220Y-71356220D03*
X132570220Y-71356220D03*
X135110220Y-71356220D03*
X137650220Y-71356220D03*
X140190220Y-71356220D03*
X142730220Y-71356220D03*
X114790220Y-86596220D03*
X117330220Y-86596220D03*
X119870220Y-86596220D03*
X122410220Y-86596220D03*
X124950220Y-86596220D03*
X127490220Y-86596220D03*
X130030220Y-86596220D03*
X132570220Y-86596220D03*
X135110220Y-86596220D03*
X137650220Y-86596220D03*
X140190220Y-86596220D03*
X142730220Y-86596220D03*
X145270220Y-72626220D03*
X145270220Y-75166220D03*
X145270220Y-77706220D03*
X145270220Y-80246220D03*
X145270220Y-82786220D03*
X145270220Y-85326220D03*
X114790220Y-84056220D03*
X114790220Y-81516220D03*
X114790220Y-78976220D03*
X131300220Y-84056220D03*
X133840220Y-84056220D03*
D12*
X167473000Y-87472000D03*
X182973000Y-87472000D03*
X182973000Y-74172000D03*
X167473000Y-74172000D03*
D13*
X178473000Y-72572000D03*
X178473000Y-68072000D03*
X171973000Y-72572000D03*
X171973000Y-68072000D03*
D14*
X164973000Y-78322000D03*
X164973000Y-83322000D03*
X164973000Y-80822000D03*
X177723000Y-90472000D03*
X175223000Y-90472000D03*
X172723000Y-90472000D03*
D15*
X114173000Y-65532000D03*
D11*
X114173000Y-62902000D03*
X116713000Y-65532000D03*
X116713000Y-62992000D03*
X119253000Y-65442000D03*
X119253000Y-62992000D03*
X121793000Y-65502000D03*
X121793000Y-62992000D03*
D16*
X69977000Y-49910000D03*
X69977000Y-54610000D03*
D17*
X69977000Y-59310000D03*
D16*
X166497000Y-49910000D03*
X166497000Y-54610000D03*
D17*
X166497000Y-59310000D03*
D12*
X53173000Y-87472000D03*
X68673000Y-87472000D03*
X68673000Y-74172000D03*
X53173000Y-74172000D03*
D13*
X64173000Y-72572000D03*
X64173000Y-68072000D03*
X57673000Y-72572000D03*
X57673000Y-68072000D03*
D14*
X50673000Y-78322000D03*
X50673000Y-83322000D03*
X50673000Y-80822000D03*
X63423000Y-90472000D03*
X60923000Y-90472000D03*
X58423000Y-90472000D03*
D18*
X78613000Y-42672000D03*
X76073000Y-42672000D03*
X73533000Y-42672000D03*
X70993000Y-42672000D03*
D15*
X68453000Y-42672000D03*
D14*
X59713000Y-98552000D03*
X59713000Y-103052000D03*
X53213000Y-98552000D03*
X53213000Y-103052000D03*
X80033000Y-92202000D03*
X80033000Y-96702000D03*
X73533000Y-92202000D03*
X73533000Y-96702000D03*
X161313000Y-92202000D03*
X161313000Y-96702000D03*
X154813000Y-92202000D03*
X154813000Y-96702000D03*
X182903000Y-98552000D03*
X182903000Y-103052000D03*
X176403000Y-98552000D03*
X176403000Y-103052000D03*
D18*
X61976000Y-57785000D03*
D15*
X59436000Y-57785000D03*
D18*
X173990000Y-57658000D03*
D15*
X176530000Y-57658000D03*
D18*
X174269400Y-48971200D03*
D15*
X174269400Y-51511200D03*
D11*
X109093000Y-86614000D03*
X106553000Y-86614000D03*
X104013000Y-86614000D03*
X101473000Y-86614000D03*
X98933000Y-86614000D03*
X96393000Y-86614000D03*
X93853000Y-86614000D03*
D15*
X91313000Y-86614000D03*
D19*
X98219260Y-42654220D03*
X93139260Y-42654220D03*
X88059260Y-42654220D03*
X147111720Y-42672000D03*
X142031720Y-42672000D03*
X136951720Y-42672000D03*
M02*
