G04 #@! TF.GenerationSoftware,KiCad,Pcbnew,(5.1.4)-1*
G04 #@! TF.CreationDate,2019-10-23T00:39:07+02:00*
G04 #@! TF.ProjectId,RF_transmitter,52465f74-7261-46e7-936d-69747465722e,rev?*
G04 #@! TF.SameCoordinates,Original*
G04 #@! TF.FileFunction,Legend,Bot*
G04 #@! TF.FilePolarity,Positive*
%FSLAX46Y46*%
G04 Gerber Fmt 4.6, Leading zero omitted, Abs format (unit mm)*
G04 Created by KiCad (PCBNEW (5.1.4)-1) date 2019-10-23 00:39:07*
%MOMM*%
%LPD*%
G04 APERTURE LIST*
%ADD10C,0.150000*%
%ADD11C,0.125000*%
%ADD12C,0.100000*%
G04 APERTURE END LIST*
D10*
X143445505Y-74218934D02*
X143445505Y-74647505D01*
X144195505Y-74433220D02*
X143445505Y-74433220D01*
X143445505Y-74826077D02*
X144195505Y-75326077D01*
X143445505Y-75326077D02*
X144195505Y-74826077D01*
X143445505Y-75754648D02*
X143445505Y-75897505D01*
X143481220Y-75968934D01*
X143552648Y-76040362D01*
X143695505Y-76076077D01*
X143945505Y-76076077D01*
X144088362Y-76040362D01*
X144159791Y-75968934D01*
X144195505Y-75897505D01*
X144195505Y-75754648D01*
X144159791Y-75683220D01*
X144088362Y-75611791D01*
X143945505Y-75576077D01*
X143695505Y-75576077D01*
X143552648Y-75611791D01*
X143481220Y-75683220D01*
X143445505Y-75754648D01*
X146110362Y-71585505D02*
X146110362Y-70835505D01*
X145931791Y-70835505D01*
X145824648Y-70871220D01*
X145753220Y-70942648D01*
X145717505Y-71014077D01*
X145681791Y-71156934D01*
X145681791Y-71264077D01*
X145717505Y-71406934D01*
X145753220Y-71478362D01*
X145824648Y-71549791D01*
X145931791Y-71585505D01*
X146110362Y-71585505D01*
X145467505Y-70835505D02*
X145038934Y-70835505D01*
X145253220Y-71585505D02*
X145253220Y-70835505D01*
X144360362Y-71585505D02*
X144610362Y-71228362D01*
X144788934Y-71585505D02*
X144788934Y-70835505D01*
X144503220Y-70835505D01*
X144431791Y-70871220D01*
X144396077Y-70906934D01*
X144360362Y-70978362D01*
X144360362Y-71085505D01*
X144396077Y-71156934D01*
X144431791Y-71192648D01*
X144503220Y-71228362D01*
X144788934Y-71228362D01*
D11*
X115219934Y-85569410D02*
X115505648Y-85569410D01*
X115362791Y-85569410D02*
X115362791Y-85069410D01*
X115410410Y-85140839D01*
X115458029Y-85188458D01*
X115505648Y-85212267D01*
X114910410Y-85069410D02*
X114862791Y-85069410D01*
X114815172Y-85093220D01*
X114791362Y-85117029D01*
X114767553Y-85164648D01*
X114743743Y-85259886D01*
X114743743Y-85378934D01*
X114767553Y-85474172D01*
X114791362Y-85521791D01*
X114815172Y-85545600D01*
X114862791Y-85569410D01*
X114910410Y-85569410D01*
X114958029Y-85545600D01*
X114981839Y-85521791D01*
X115005648Y-85474172D01*
X115029458Y-85378934D01*
X115029458Y-85259886D01*
X115005648Y-85164648D01*
X114981839Y-85117029D01*
X114958029Y-85093220D01*
X114910410Y-85069410D01*
X114458029Y-85069410D02*
X114458029Y-85188458D01*
X114577077Y-85140839D02*
X114458029Y-85188458D01*
X114338981Y-85140839D01*
X114529458Y-85283696D02*
X114458029Y-85188458D01*
X114386600Y-85283696D01*
D10*
X143265077Y-85555505D02*
X143515077Y-85198362D01*
X143693648Y-85555505D02*
X143693648Y-84805505D01*
X143407934Y-84805505D01*
X143336505Y-84841220D01*
X143300791Y-84876934D01*
X143265077Y-84948362D01*
X143265077Y-85055505D01*
X143300791Y-85126934D01*
X143336505Y-85162648D01*
X143407934Y-85198362D01*
X143693648Y-85198362D01*
X142979362Y-85341220D02*
X142622220Y-85341220D01*
X143050791Y-85555505D02*
X142800791Y-84805505D01*
X142550791Y-85555505D01*
X142372220Y-84805505D02*
X142193648Y-85555505D01*
X142050791Y-85019791D01*
X141907934Y-85555505D01*
X141729362Y-84805505D01*
X138077934Y-85555505D02*
X138327934Y-85198362D01*
X138506505Y-85555505D02*
X138506505Y-84805505D01*
X138220791Y-84805505D01*
X138149362Y-84841220D01*
X138113648Y-84876934D01*
X138077934Y-84948362D01*
X138077934Y-85055505D01*
X138113648Y-85126934D01*
X138149362Y-85162648D01*
X138220791Y-85198362D01*
X138506505Y-85198362D01*
X137792220Y-85519791D02*
X137685077Y-85555505D01*
X137506505Y-85555505D01*
X137435077Y-85519791D01*
X137399362Y-85484077D01*
X137363648Y-85412648D01*
X137363648Y-85341220D01*
X137399362Y-85269791D01*
X137435077Y-85234077D01*
X137506505Y-85198362D01*
X137649362Y-85162648D01*
X137720791Y-85126934D01*
X137756505Y-85091220D01*
X137792220Y-85019791D01*
X137792220Y-84948362D01*
X137756505Y-84876934D01*
X137720791Y-84841220D01*
X137649362Y-84805505D01*
X137470791Y-84805505D01*
X137363648Y-84841220D01*
X137149362Y-84805505D02*
X136720791Y-84805505D01*
X136935077Y-85555505D02*
X136935077Y-84805505D01*
X144195505Y-77419648D02*
X143838362Y-77169648D01*
X144195505Y-76991077D02*
X143445505Y-76991077D01*
X143445505Y-77276791D01*
X143481220Y-77348220D01*
X143516934Y-77383934D01*
X143588362Y-77419648D01*
X143695505Y-77419648D01*
X143766934Y-77383934D01*
X143802648Y-77348220D01*
X143838362Y-77276791D01*
X143838362Y-76991077D01*
X143445505Y-77669648D02*
X144195505Y-78169648D01*
X143445505Y-78169648D02*
X144195505Y-77669648D01*
X144195505Y-78455362D02*
X143445505Y-78455362D01*
X143711505Y-72486505D02*
X143282934Y-72486505D01*
X143497220Y-73236505D02*
X143497220Y-72486505D01*
X143104362Y-72486505D02*
X142604362Y-73236505D01*
X142604362Y-72486505D02*
X143104362Y-73236505D01*
X142175791Y-72486505D02*
X142032934Y-72486505D01*
X141961505Y-72522220D01*
X141890077Y-72593648D01*
X141854362Y-72736505D01*
X141854362Y-72986505D01*
X141890077Y-73129362D01*
X141961505Y-73200791D01*
X142032934Y-73236505D01*
X142175791Y-73236505D01*
X142247220Y-73200791D01*
X142318648Y-73129362D01*
X142354362Y-72986505D01*
X142354362Y-72736505D01*
X142318648Y-72593648D01*
X142247220Y-72522220D01*
X142175791Y-72486505D01*
X140510791Y-73236505D02*
X140760791Y-72879362D01*
X140939362Y-73236505D02*
X140939362Y-72486505D01*
X140653648Y-72486505D01*
X140582220Y-72522220D01*
X140546505Y-72557934D01*
X140510791Y-72629362D01*
X140510791Y-72736505D01*
X140546505Y-72807934D01*
X140582220Y-72843648D01*
X140653648Y-72879362D01*
X140939362Y-72879362D01*
X140260791Y-72486505D02*
X139760791Y-73236505D01*
X139760791Y-72486505D02*
X140260791Y-73236505D01*
X139475077Y-73236505D02*
X139475077Y-72486505D01*
X138077934Y-73236505D02*
X138327934Y-72879362D01*
X138506505Y-73236505D02*
X138506505Y-72486505D01*
X138220791Y-72486505D01*
X138149362Y-72522220D01*
X138113648Y-72557934D01*
X138077934Y-72629362D01*
X138077934Y-72736505D01*
X138113648Y-72807934D01*
X138149362Y-72843648D01*
X138220791Y-72879362D01*
X138506505Y-72879362D01*
X137792220Y-73200791D02*
X137685077Y-73236505D01*
X137506505Y-73236505D01*
X137435077Y-73200791D01*
X137399362Y-73165077D01*
X137363648Y-73093648D01*
X137363648Y-73022220D01*
X137399362Y-72950791D01*
X137435077Y-72915077D01*
X137506505Y-72879362D01*
X137649362Y-72843648D01*
X137720791Y-72807934D01*
X137756505Y-72772220D01*
X137792220Y-72700791D01*
X137792220Y-72629362D01*
X137756505Y-72557934D01*
X137720791Y-72522220D01*
X137649362Y-72486505D01*
X137470791Y-72486505D01*
X137363648Y-72522220D01*
X137149362Y-72486505D02*
X136720791Y-72486505D01*
X136935077Y-73236505D02*
X136935077Y-72486505D01*
X136127220Y-84805505D02*
X135877220Y-85555505D01*
X135627220Y-84805505D01*
X134948648Y-85484077D02*
X134984362Y-85519791D01*
X135091505Y-85555505D01*
X135162934Y-85555505D01*
X135270077Y-85519791D01*
X135341505Y-85448362D01*
X135377220Y-85376934D01*
X135412934Y-85234077D01*
X135412934Y-85126934D01*
X135377220Y-84984077D01*
X135341505Y-84912648D01*
X135270077Y-84841220D01*
X135162934Y-84805505D01*
X135091505Y-84805505D01*
X134984362Y-84841220D01*
X134948648Y-84876934D01*
X134198648Y-85484077D02*
X134234362Y-85519791D01*
X134341505Y-85555505D01*
X134412934Y-85555505D01*
X134520077Y-85519791D01*
X134591505Y-85448362D01*
X134627220Y-85376934D01*
X134662934Y-85234077D01*
X134662934Y-85126934D01*
X134627220Y-84984077D01*
X134591505Y-84912648D01*
X134520077Y-84841220D01*
X134412934Y-84805505D01*
X134341505Y-84805505D01*
X134234362Y-84841220D01*
X134198648Y-84876934D01*
X143445505Y-79263220D02*
X144195505Y-79513220D01*
X143445505Y-79763220D01*
X144124077Y-80441791D02*
X144159791Y-80406077D01*
X144195505Y-80298934D01*
X144195505Y-80227505D01*
X144159791Y-80120362D01*
X144088362Y-80048934D01*
X144016934Y-80013220D01*
X143874077Y-79977505D01*
X143766934Y-79977505D01*
X143624077Y-80013220D01*
X143552648Y-80048934D01*
X143481220Y-80120362D01*
X143445505Y-80227505D01*
X143445505Y-80298934D01*
X143481220Y-80406077D01*
X143516934Y-80441791D01*
X144124077Y-81191791D02*
X144159791Y-81156077D01*
X144195505Y-81048934D01*
X144195505Y-80977505D01*
X144159791Y-80870362D01*
X144088362Y-80798934D01*
X144016934Y-80763220D01*
X143874077Y-80727505D01*
X143766934Y-80727505D01*
X143624077Y-80763220D01*
X143552648Y-80798934D01*
X143481220Y-80870362D01*
X143445505Y-80977505D01*
X143445505Y-81048934D01*
X143481220Y-81156077D01*
X143516934Y-81191791D01*
X143481220Y-82231791D02*
X143445505Y-82160362D01*
X143445505Y-82053220D01*
X143481220Y-81946077D01*
X143552648Y-81874648D01*
X143624077Y-81838934D01*
X143766934Y-81803220D01*
X143874077Y-81803220D01*
X144016934Y-81838934D01*
X144088362Y-81874648D01*
X144159791Y-81946077D01*
X144195505Y-82053220D01*
X144195505Y-82124648D01*
X144159791Y-82231791D01*
X144124077Y-82267505D01*
X143874077Y-82267505D01*
X143874077Y-82124648D01*
X144195505Y-82588934D02*
X143445505Y-82588934D01*
X144195505Y-83017505D01*
X143445505Y-83017505D01*
X144195505Y-83374648D02*
X143445505Y-83374648D01*
X143445505Y-83553220D01*
X143481220Y-83660362D01*
X143552648Y-83731791D01*
X143624077Y-83767505D01*
X143766934Y-83803220D01*
X143874077Y-83803220D01*
X144016934Y-83767505D01*
X144088362Y-83731791D01*
X144159791Y-83660362D01*
X144195505Y-83553220D01*
X144195505Y-83374648D01*
X140778648Y-84841220D02*
X140850077Y-84805505D01*
X140957220Y-84805505D01*
X141064362Y-84841220D01*
X141135791Y-84912648D01*
X141171505Y-84984077D01*
X141207220Y-85126934D01*
X141207220Y-85234077D01*
X141171505Y-85376934D01*
X141135791Y-85448362D01*
X141064362Y-85519791D01*
X140957220Y-85555505D01*
X140885791Y-85555505D01*
X140778648Y-85519791D01*
X140742934Y-85484077D01*
X140742934Y-85234077D01*
X140885791Y-85234077D01*
X140421505Y-85555505D02*
X140421505Y-84805505D01*
X139992934Y-85555505D01*
X139992934Y-84805505D01*
X139635791Y-85555505D02*
X139635791Y-84805505D01*
X139457220Y-84805505D01*
X139350077Y-84841220D01*
X139278648Y-84912648D01*
X139242934Y-84984077D01*
X139207220Y-85126934D01*
X139207220Y-85234077D01*
X139242934Y-85376934D01*
X139278648Y-85448362D01*
X139350077Y-85519791D01*
X139457220Y-85555505D01*
X139635791Y-85555505D01*
X145824648Y-86492220D02*
X145896077Y-86456505D01*
X146003220Y-86456505D01*
X146110362Y-86492220D01*
X146181791Y-86563648D01*
X146217505Y-86635077D01*
X146253220Y-86777934D01*
X146253220Y-86885077D01*
X146217505Y-87027934D01*
X146181791Y-87099362D01*
X146110362Y-87170791D01*
X146003220Y-87206505D01*
X145931791Y-87206505D01*
X145824648Y-87170791D01*
X145788934Y-87135077D01*
X145788934Y-86885077D01*
X145931791Y-86885077D01*
X145467505Y-87206505D02*
X145467505Y-86456505D01*
X145038934Y-87206505D01*
X145038934Y-86456505D01*
X144681791Y-87206505D02*
X144681791Y-86456505D01*
X144503220Y-86456505D01*
X144396077Y-86492220D01*
X144324648Y-86563648D01*
X144288934Y-86635077D01*
X144253220Y-86777934D01*
X144253220Y-86885077D01*
X144288934Y-87027934D01*
X144324648Y-87099362D01*
X144396077Y-87170791D01*
X144503220Y-87206505D01*
X144681791Y-87206505D01*
X115956220Y-78421791D02*
X115920505Y-78350362D01*
X115920505Y-78243220D01*
X115956220Y-78136077D01*
X116027648Y-78064648D01*
X116099077Y-78028934D01*
X116241934Y-77993220D01*
X116349077Y-77993220D01*
X116491934Y-78028934D01*
X116563362Y-78064648D01*
X116634791Y-78136077D01*
X116670505Y-78243220D01*
X116670505Y-78314648D01*
X116634791Y-78421791D01*
X116599077Y-78457505D01*
X116349077Y-78457505D01*
X116349077Y-78314648D01*
X116670505Y-78778934D02*
X115920505Y-78778934D01*
X116670505Y-79207505D01*
X115920505Y-79207505D01*
X116670505Y-79564648D02*
X115920505Y-79564648D01*
X115920505Y-79743220D01*
X115956220Y-79850362D01*
X116027648Y-79921791D01*
X116099077Y-79957505D01*
X116241934Y-79993220D01*
X116349077Y-79993220D01*
X116491934Y-79957505D01*
X116563362Y-79921791D01*
X116634791Y-79850362D01*
X116670505Y-79743220D01*
X116670505Y-79564648D01*
X135698648Y-72522220D02*
X135770077Y-72486505D01*
X135877220Y-72486505D01*
X135984362Y-72522220D01*
X136055791Y-72593648D01*
X136091505Y-72665077D01*
X136127220Y-72807934D01*
X136127220Y-72915077D01*
X136091505Y-73057934D01*
X136055791Y-73129362D01*
X135984362Y-73200791D01*
X135877220Y-73236505D01*
X135805791Y-73236505D01*
X135698648Y-73200791D01*
X135662934Y-73165077D01*
X135662934Y-72915077D01*
X135805791Y-72915077D01*
X135341505Y-73236505D02*
X135341505Y-72486505D01*
X134912934Y-73236505D01*
X134912934Y-72486505D01*
X134555791Y-73236505D02*
X134555791Y-72486505D01*
X134377220Y-72486505D01*
X134270077Y-72522220D01*
X134198648Y-72593648D01*
X134162934Y-72665077D01*
X134127220Y-72807934D01*
X134127220Y-72915077D01*
X134162934Y-73057934D01*
X134198648Y-73129362D01*
X134270077Y-73200791D01*
X134377220Y-73236505D01*
X134555791Y-73236505D01*
X115235791Y-73236505D02*
X115092934Y-73236505D01*
X115021505Y-73200791D01*
X114985791Y-73165077D01*
X114914362Y-73057934D01*
X114878648Y-72915077D01*
X114878648Y-72629362D01*
X114914362Y-72557934D01*
X114950077Y-72522220D01*
X115021505Y-72486505D01*
X115164362Y-72486505D01*
X115235791Y-72522220D01*
X115271505Y-72557934D01*
X115307220Y-72629362D01*
X115307220Y-72807934D01*
X115271505Y-72879362D01*
X115235791Y-72915077D01*
X115164362Y-72950791D01*
X115021505Y-72950791D01*
X114950077Y-72915077D01*
X114914362Y-72879362D01*
X114878648Y-72807934D01*
X114450077Y-72486505D02*
X114450077Y-72665077D01*
X114628648Y-72593648D02*
X114450077Y-72665077D01*
X114271505Y-72593648D01*
X114557220Y-72807934D02*
X114450077Y-72665077D01*
X114342934Y-72807934D01*
X117418648Y-72807934D02*
X117490077Y-72772220D01*
X117525791Y-72736505D01*
X117561505Y-72665077D01*
X117561505Y-72629362D01*
X117525791Y-72557934D01*
X117490077Y-72522220D01*
X117418648Y-72486505D01*
X117275791Y-72486505D01*
X117204362Y-72522220D01*
X117168648Y-72557934D01*
X117132934Y-72629362D01*
X117132934Y-72665077D01*
X117168648Y-72736505D01*
X117204362Y-72772220D01*
X117275791Y-72807934D01*
X117418648Y-72807934D01*
X117490077Y-72843648D01*
X117525791Y-72879362D01*
X117561505Y-72950791D01*
X117561505Y-73093648D01*
X117525791Y-73165077D01*
X117490077Y-73200791D01*
X117418648Y-73236505D01*
X117275791Y-73236505D01*
X117204362Y-73200791D01*
X117168648Y-73165077D01*
X117132934Y-73093648D01*
X117132934Y-72950791D01*
X117168648Y-72879362D01*
X117204362Y-72843648D01*
X117275791Y-72807934D01*
X120010220Y-72486505D02*
X119510220Y-72486505D01*
X119831648Y-73236505D01*
X125074362Y-72486505D02*
X125431505Y-72486505D01*
X125467220Y-72843648D01*
X125431505Y-72807934D01*
X125360077Y-72772220D01*
X125181505Y-72772220D01*
X125110077Y-72807934D01*
X125074362Y-72843648D01*
X125038648Y-72915077D01*
X125038648Y-73093648D01*
X125074362Y-73165077D01*
X125110077Y-73200791D01*
X125181505Y-73236505D01*
X125360077Y-73236505D01*
X125431505Y-73200791D01*
X125467220Y-73165077D01*
X124610077Y-72486505D02*
X124610077Y-72665077D01*
X124788648Y-72593648D02*
X124610077Y-72665077D01*
X124431505Y-72593648D01*
X124717220Y-72807934D02*
X124610077Y-72665077D01*
X124502934Y-72807934D01*
X122570077Y-72486505D02*
X122712934Y-72486505D01*
X122784362Y-72522220D01*
X122820077Y-72557934D01*
X122891505Y-72665077D01*
X122927220Y-72807934D01*
X122927220Y-73093648D01*
X122891505Y-73165077D01*
X122855791Y-73200791D01*
X122784362Y-73236505D01*
X122641505Y-73236505D01*
X122570077Y-73200791D01*
X122534362Y-73165077D01*
X122498648Y-73093648D01*
X122498648Y-72915077D01*
X122534362Y-72843648D01*
X122570077Y-72807934D01*
X122641505Y-72772220D01*
X122784362Y-72772220D01*
X122855791Y-72807934D01*
X122891505Y-72843648D01*
X122927220Y-72915077D01*
X122070077Y-72486505D02*
X122070077Y-72665077D01*
X122248648Y-72593648D02*
X122070077Y-72665077D01*
X121891505Y-72593648D01*
X122177220Y-72807934D02*
X122070077Y-72665077D01*
X121962934Y-72807934D01*
X127364362Y-72736505D02*
X127364362Y-73236505D01*
X127542934Y-72450791D02*
X127721505Y-72986505D01*
X127257220Y-72986505D01*
X130582934Y-72486505D02*
X130118648Y-72486505D01*
X130368648Y-72772220D01*
X130261505Y-72772220D01*
X130190077Y-72807934D01*
X130154362Y-72843648D01*
X130118648Y-72915077D01*
X130118648Y-73093648D01*
X130154362Y-73165077D01*
X130190077Y-73200791D01*
X130261505Y-73236505D01*
X130475791Y-73236505D01*
X130547220Y-73200791D01*
X130582934Y-73165077D01*
X129690077Y-72486505D02*
X129690077Y-72665077D01*
X129868648Y-72593648D02*
X129690077Y-72665077D01*
X129511505Y-72593648D01*
X129797220Y-72807934D02*
X129690077Y-72665077D01*
X129582934Y-72807934D01*
X132801505Y-72557934D02*
X132765791Y-72522220D01*
X132694362Y-72486505D01*
X132515791Y-72486505D01*
X132444362Y-72522220D01*
X132408648Y-72557934D01*
X132372934Y-72629362D01*
X132372934Y-72700791D01*
X132408648Y-72807934D01*
X132837220Y-73236505D01*
X132372934Y-73236505D01*
D11*
X116456220Y-83537505D02*
X116456220Y-83894648D01*
X116670505Y-83466077D02*
X115920505Y-83716077D01*
X116670505Y-83966077D01*
X115920505Y-84144648D02*
X115920505Y-84644648D01*
X116670505Y-84323220D01*
X116456220Y-80997505D02*
X116456220Y-81354648D01*
X116670505Y-80926077D02*
X115920505Y-81176077D01*
X116670505Y-81426077D01*
X115920505Y-81997505D02*
X115920505Y-81854648D01*
X115956220Y-81783220D01*
X115991934Y-81747505D01*
X116099077Y-81676077D01*
X116241934Y-81640362D01*
X116527648Y-81640362D01*
X116599077Y-81676077D01*
X116634791Y-81711791D01*
X116670505Y-81783220D01*
X116670505Y-81926077D01*
X116634791Y-81997505D01*
X116599077Y-82033220D01*
X116527648Y-82068934D01*
X116349077Y-82068934D01*
X116277648Y-82033220D01*
X116241934Y-81997505D01*
X116206220Y-81926077D01*
X116206220Y-81783220D01*
X116241934Y-81711791D01*
X116277648Y-81676077D01*
X116349077Y-81640362D01*
X134392934Y-82801220D02*
X134035791Y-82801220D01*
X134464362Y-83015505D02*
X134214362Y-82265505D01*
X133964362Y-83015505D01*
X133357220Y-82265505D02*
X133714362Y-82265505D01*
X133750077Y-82622648D01*
X133714362Y-82586934D01*
X133642934Y-82551220D01*
X133464362Y-82551220D01*
X133392934Y-82586934D01*
X133357220Y-82622648D01*
X133321505Y-82694077D01*
X133321505Y-82872648D01*
X133357220Y-82944077D01*
X133392934Y-82979791D01*
X133464362Y-83015505D01*
X133642934Y-83015505D01*
X133714362Y-82979791D01*
X133750077Y-82944077D01*
X131852934Y-82801220D02*
X131495791Y-82801220D01*
X131924362Y-83015505D02*
X131674362Y-82265505D01*
X131424362Y-83015505D01*
X130852934Y-82515505D02*
X130852934Y-83015505D01*
X131031505Y-82229791D02*
X131210077Y-82765505D01*
X130745791Y-82765505D01*
X133122934Y-85341220D02*
X132765791Y-85341220D01*
X133194362Y-85555505D02*
X132944362Y-84805505D01*
X132694362Y-85555505D01*
X132515791Y-84805505D02*
X132051505Y-84805505D01*
X132301505Y-85091220D01*
X132194362Y-85091220D01*
X132122934Y-85126934D01*
X132087220Y-85162648D01*
X132051505Y-85234077D01*
X132051505Y-85412648D01*
X132087220Y-85484077D01*
X132122934Y-85519791D01*
X132194362Y-85555505D01*
X132408648Y-85555505D01*
X132480077Y-85519791D01*
X132515791Y-85484077D01*
X130582934Y-85341220D02*
X130225791Y-85341220D01*
X130654362Y-85555505D02*
X130404362Y-84805505D01*
X130154362Y-85555505D01*
X129940077Y-84876934D02*
X129904362Y-84841220D01*
X129832934Y-84805505D01*
X129654362Y-84805505D01*
X129582934Y-84841220D01*
X129547220Y-84876934D01*
X129511505Y-84948362D01*
X129511505Y-85019791D01*
X129547220Y-85126934D01*
X129975791Y-85555505D01*
X129511505Y-85555505D01*
X128042934Y-85341220D02*
X127685791Y-85341220D01*
X128114362Y-85555505D02*
X127864362Y-84805505D01*
X127614362Y-85555505D01*
X126971505Y-85555505D02*
X127400077Y-85555505D01*
X127185791Y-85555505D02*
X127185791Y-84805505D01*
X127257220Y-84912648D01*
X127328648Y-84984077D01*
X127400077Y-85019791D01*
X125502934Y-85341220D02*
X125145791Y-85341220D01*
X125574362Y-85555505D02*
X125324362Y-84805505D01*
X125074362Y-85555505D01*
X124681505Y-84805505D02*
X124610077Y-84805505D01*
X124538648Y-84841220D01*
X124502934Y-84876934D01*
X124467220Y-84948362D01*
X124431505Y-85091220D01*
X124431505Y-85269791D01*
X124467220Y-85412648D01*
X124502934Y-85484077D01*
X124538648Y-85519791D01*
X124610077Y-85555505D01*
X124681505Y-85555505D01*
X124752934Y-85519791D01*
X124788648Y-85484077D01*
X124824362Y-85412648D01*
X124860077Y-85269791D01*
X124860077Y-85091220D01*
X124824362Y-84948362D01*
X124788648Y-84876934D01*
X124752934Y-84841220D01*
X124681505Y-84805505D01*
X123264505Y-85519791D02*
X123157362Y-85555505D01*
X122978791Y-85555505D01*
X122907362Y-85519791D01*
X122871648Y-85484077D01*
X122835934Y-85412648D01*
X122835934Y-85341220D01*
X122871648Y-85269791D01*
X122907362Y-85234077D01*
X122978791Y-85198362D01*
X123121648Y-85162648D01*
X123193077Y-85126934D01*
X123228791Y-85091220D01*
X123264505Y-85019791D01*
X123264505Y-84948362D01*
X123228791Y-84876934D01*
X123193077Y-84841220D01*
X123121648Y-84805505D01*
X122943077Y-84805505D01*
X122835934Y-84841220D01*
X122085934Y-85484077D02*
X122121648Y-85519791D01*
X122228791Y-85555505D01*
X122300220Y-85555505D01*
X122407362Y-85519791D01*
X122478791Y-85448362D01*
X122514505Y-85376934D01*
X122550220Y-85234077D01*
X122550220Y-85126934D01*
X122514505Y-84984077D01*
X122478791Y-84912648D01*
X122407362Y-84841220D01*
X122300220Y-84805505D01*
X122228791Y-84805505D01*
X122121648Y-84841220D01*
X122085934Y-84876934D01*
X121764505Y-85555505D02*
X121764505Y-84805505D01*
X121335934Y-85555505D02*
X121657362Y-85126934D01*
X121335934Y-84805505D02*
X121764505Y-85234077D01*
D12*
X120830077Y-85487648D02*
X120830077Y-84887648D01*
X120630077Y-85316220D01*
X120430077Y-84887648D01*
X120430077Y-85487648D01*
X120144362Y-85487648D02*
X120144362Y-84887648D01*
X119887220Y-85459077D02*
X119801505Y-85487648D01*
X119658648Y-85487648D01*
X119601505Y-85459077D01*
X119572934Y-85430505D01*
X119544362Y-85373362D01*
X119544362Y-85316220D01*
X119572934Y-85259077D01*
X119601505Y-85230505D01*
X119658648Y-85201934D01*
X119772934Y-85173362D01*
X119830077Y-85144791D01*
X119858648Y-85116220D01*
X119887220Y-85059077D01*
X119887220Y-85001934D01*
X119858648Y-84944791D01*
X119830077Y-84916220D01*
X119772934Y-84887648D01*
X119630077Y-84887648D01*
X119544362Y-84916220D01*
X119172934Y-84887648D02*
X119058648Y-84887648D01*
X119001505Y-84916220D01*
X118944362Y-84973362D01*
X118915791Y-85087648D01*
X118915791Y-85287648D01*
X118944362Y-85401934D01*
X119001505Y-85459077D01*
X119058648Y-85487648D01*
X119172934Y-85487648D01*
X119230077Y-85459077D01*
X119287220Y-85401934D01*
X119315791Y-85287648D01*
X119315791Y-85087648D01*
X119287220Y-84973362D01*
X119230077Y-84916220D01*
X119172934Y-84887648D01*
X118290077Y-85487648D02*
X118290077Y-84887648D01*
X118090077Y-85316220D01*
X117890077Y-84887648D01*
X117890077Y-85487648D01*
X117490077Y-84887648D02*
X117375791Y-84887648D01*
X117318648Y-84916220D01*
X117261505Y-84973362D01*
X117232934Y-85087648D01*
X117232934Y-85287648D01*
X117261505Y-85401934D01*
X117318648Y-85459077D01*
X117375791Y-85487648D01*
X117490077Y-85487648D01*
X117547220Y-85459077D01*
X117604362Y-85401934D01*
X117632934Y-85287648D01*
X117632934Y-85087648D01*
X117604362Y-84973362D01*
X117547220Y-84916220D01*
X117490077Y-84887648D01*
X117004362Y-85459077D02*
X116918648Y-85487648D01*
X116775791Y-85487648D01*
X116718648Y-85459077D01*
X116690077Y-85430505D01*
X116661505Y-85373362D01*
X116661505Y-85316220D01*
X116690077Y-85259077D01*
X116718648Y-85230505D01*
X116775791Y-85201934D01*
X116890077Y-85173362D01*
X116947220Y-85144791D01*
X116975791Y-85116220D01*
X117004362Y-85059077D01*
X117004362Y-85001934D01*
X116975791Y-84944791D01*
X116947220Y-84916220D01*
X116890077Y-84887648D01*
X116747220Y-84887648D01*
X116661505Y-84916220D01*
X116404362Y-85487648D02*
X116404362Y-84887648D01*
D11*
X122735857Y-67327428D02*
X122735857Y-66727428D01*
X122535857Y-67156000D01*
X122335857Y-66727428D01*
X122335857Y-67327428D01*
X122050142Y-67327428D02*
X122050142Y-66727428D01*
X121793000Y-67298857D02*
X121707285Y-67327428D01*
X121564428Y-67327428D01*
X121507285Y-67298857D01*
X121478714Y-67270285D01*
X121450142Y-67213142D01*
X121450142Y-67156000D01*
X121478714Y-67098857D01*
X121507285Y-67070285D01*
X121564428Y-67041714D01*
X121678714Y-67013142D01*
X121735857Y-66984571D01*
X121764428Y-66956000D01*
X121793000Y-66898857D01*
X121793000Y-66841714D01*
X121764428Y-66784571D01*
X121735857Y-66756000D01*
X121678714Y-66727428D01*
X121535857Y-66727428D01*
X121450142Y-66756000D01*
X121078714Y-66727428D02*
X120964428Y-66727428D01*
X120907285Y-66756000D01*
X120850142Y-66813142D01*
X120821571Y-66927428D01*
X120821571Y-67127428D01*
X120850142Y-67241714D01*
X120907285Y-67298857D01*
X120964428Y-67327428D01*
X121078714Y-67327428D01*
X121135857Y-67298857D01*
X121193000Y-67241714D01*
X121221571Y-67127428D01*
X121221571Y-66927428D01*
X121193000Y-66813142D01*
X121135857Y-66756000D01*
X121078714Y-66727428D01*
D10*
X120217285Y-67359571D02*
X120110142Y-67395285D01*
X119931571Y-67395285D01*
X119860142Y-67359571D01*
X119824428Y-67323857D01*
X119788714Y-67252428D01*
X119788714Y-67181000D01*
X119824428Y-67109571D01*
X119860142Y-67073857D01*
X119931571Y-67038142D01*
X120074428Y-67002428D01*
X120145857Y-66966714D01*
X120181571Y-66931000D01*
X120217285Y-66859571D01*
X120217285Y-66788142D01*
X120181571Y-66716714D01*
X120145857Y-66681000D01*
X120074428Y-66645285D01*
X119895857Y-66645285D01*
X119788714Y-66681000D01*
X119038714Y-67323857D02*
X119074428Y-67359571D01*
X119181571Y-67395285D01*
X119253000Y-67395285D01*
X119360142Y-67359571D01*
X119431571Y-67288142D01*
X119467285Y-67216714D01*
X119503000Y-67073857D01*
X119503000Y-66966714D01*
X119467285Y-66823857D01*
X119431571Y-66752428D01*
X119360142Y-66681000D01*
X119253000Y-66645285D01*
X119181571Y-66645285D01*
X119074428Y-66681000D01*
X119038714Y-66716714D01*
X118717285Y-67395285D02*
X118717285Y-66645285D01*
X118288714Y-67395285D02*
X118610142Y-66966714D01*
X118288714Y-66645285D02*
X118717285Y-67073857D01*
X116820142Y-67323857D02*
X116855857Y-67359571D01*
X116963000Y-67395285D01*
X117034428Y-67395285D01*
X117141571Y-67359571D01*
X117213000Y-67288142D01*
X117248714Y-67216714D01*
X117284428Y-67073857D01*
X117284428Y-66966714D01*
X117248714Y-66823857D01*
X117213000Y-66752428D01*
X117141571Y-66681000D01*
X117034428Y-66645285D01*
X116963000Y-66645285D01*
X116855857Y-66681000D01*
X116820142Y-66716714D01*
X116498714Y-67002428D02*
X116248714Y-67002428D01*
X116141571Y-67395285D02*
X116498714Y-67395285D01*
X116498714Y-66645285D01*
X116141571Y-66645285D01*
X114744428Y-66681000D02*
X114815857Y-66645285D01*
X114923000Y-66645285D01*
X115030142Y-66681000D01*
X115101571Y-66752428D01*
X115137285Y-66823857D01*
X115173000Y-66966714D01*
X115173000Y-67073857D01*
X115137285Y-67216714D01*
X115101571Y-67288142D01*
X115030142Y-67359571D01*
X114923000Y-67395285D01*
X114851571Y-67395285D01*
X114744428Y-67359571D01*
X114708714Y-67323857D01*
X114708714Y-67073857D01*
X114851571Y-67073857D01*
X114387285Y-67395285D02*
X114387285Y-66645285D01*
X113958714Y-67395285D01*
X113958714Y-66645285D01*
X113601571Y-67395285D02*
X113601571Y-66645285D01*
X113423000Y-66645285D01*
X113315857Y-66681000D01*
X113244428Y-66752428D01*
X113208714Y-66823857D01*
X113173000Y-66966714D01*
X113173000Y-67073857D01*
X113208714Y-67216714D01*
X113244428Y-67288142D01*
X113315857Y-67359571D01*
X113423000Y-67395285D01*
X113601571Y-67395285D01*
X122560857Y-61680285D02*
X122560857Y-60930285D01*
X121775142Y-61680285D02*
X122025142Y-61323142D01*
X122203714Y-61680285D02*
X122203714Y-60930285D01*
X121918000Y-60930285D01*
X121846571Y-60966000D01*
X121810857Y-61001714D01*
X121775142Y-61073142D01*
X121775142Y-61180285D01*
X121810857Y-61251714D01*
X121846571Y-61287428D01*
X121918000Y-61323142D01*
X122203714Y-61323142D01*
X120953714Y-61751714D02*
X121025142Y-61716000D01*
X121096571Y-61644571D01*
X121203714Y-61537428D01*
X121275142Y-61501714D01*
X121346571Y-61501714D01*
X121310857Y-61680285D02*
X121382285Y-61644571D01*
X121453714Y-61573142D01*
X121489428Y-61430285D01*
X121489428Y-61180285D01*
X121453714Y-61037428D01*
X121382285Y-60966000D01*
X121310857Y-60930285D01*
X121168000Y-60930285D01*
X121096571Y-60966000D01*
X121025142Y-61037428D01*
X120989428Y-61180285D01*
X120989428Y-61430285D01*
X121025142Y-61573142D01*
X121096571Y-61644571D01*
X121168000Y-61680285D01*
X121310857Y-61680285D01*
D11*
X120195857Y-61739428D02*
X120195857Y-61139428D01*
X119995857Y-61568000D01*
X119795857Y-61139428D01*
X119795857Y-61739428D01*
X119395857Y-61139428D02*
X119281571Y-61139428D01*
X119224428Y-61168000D01*
X119167285Y-61225142D01*
X119138714Y-61339428D01*
X119138714Y-61539428D01*
X119167285Y-61653714D01*
X119224428Y-61710857D01*
X119281571Y-61739428D01*
X119395857Y-61739428D01*
X119453000Y-61710857D01*
X119510142Y-61653714D01*
X119538714Y-61539428D01*
X119538714Y-61339428D01*
X119510142Y-61225142D01*
X119453000Y-61168000D01*
X119395857Y-61139428D01*
X118910142Y-61710857D02*
X118824428Y-61739428D01*
X118681571Y-61739428D01*
X118624428Y-61710857D01*
X118595857Y-61682285D01*
X118567285Y-61625142D01*
X118567285Y-61568000D01*
X118595857Y-61510857D01*
X118624428Y-61482285D01*
X118681571Y-61453714D01*
X118795857Y-61425142D01*
X118853000Y-61396571D01*
X118881571Y-61368000D01*
X118910142Y-61310857D01*
X118910142Y-61253714D01*
X118881571Y-61196571D01*
X118853000Y-61168000D01*
X118795857Y-61139428D01*
X118653000Y-61139428D01*
X118567285Y-61168000D01*
X118310142Y-61739428D02*
X118310142Y-61139428D01*
D10*
X117230857Y-61608857D02*
X117266571Y-61644571D01*
X117373714Y-61680285D01*
X117445142Y-61680285D01*
X117552285Y-61644571D01*
X117623714Y-61573142D01*
X117659428Y-61501714D01*
X117695142Y-61358857D01*
X117695142Y-61251714D01*
X117659428Y-61108857D01*
X117623714Y-61037428D01*
X117552285Y-60966000D01*
X117445142Y-60930285D01*
X117373714Y-60930285D01*
X117266571Y-60966000D01*
X117230857Y-61001714D01*
X116945142Y-61644571D02*
X116838000Y-61680285D01*
X116659428Y-61680285D01*
X116588000Y-61644571D01*
X116552285Y-61608857D01*
X116516571Y-61537428D01*
X116516571Y-61466000D01*
X116552285Y-61394571D01*
X116588000Y-61358857D01*
X116659428Y-61323142D01*
X116802285Y-61287428D01*
X116873714Y-61251714D01*
X116909428Y-61216000D01*
X116945142Y-61144571D01*
X116945142Y-61073142D01*
X116909428Y-61001714D01*
X116873714Y-60966000D01*
X116802285Y-60930285D01*
X116623714Y-60930285D01*
X116516571Y-60966000D01*
X116195142Y-61680285D02*
X116195142Y-60930285D01*
X115766571Y-61680285D01*
X115766571Y-60930285D01*
X115173000Y-60930285D02*
X114923000Y-61680285D01*
X114673000Y-60930285D01*
X113994428Y-61608857D02*
X114030142Y-61644571D01*
X114137285Y-61680285D01*
X114208714Y-61680285D01*
X114315857Y-61644571D01*
X114387285Y-61573142D01*
X114423000Y-61501714D01*
X114458714Y-61358857D01*
X114458714Y-61251714D01*
X114423000Y-61108857D01*
X114387285Y-61037428D01*
X114315857Y-60966000D01*
X114208714Y-60930285D01*
X114137285Y-60930285D01*
X114030142Y-60966000D01*
X113994428Y-61001714D01*
X113244428Y-61608857D02*
X113280142Y-61644571D01*
X113387285Y-61680285D01*
X113458714Y-61680285D01*
X113565857Y-61644571D01*
X113637285Y-61573142D01*
X113673000Y-61501714D01*
X113708714Y-61358857D01*
X113708714Y-61251714D01*
X113673000Y-61108857D01*
X113637285Y-61037428D01*
X113565857Y-60966000D01*
X113458714Y-60930285D01*
X113387285Y-60930285D01*
X113280142Y-60966000D01*
X113244428Y-61001714D01*
X109644571Y-85429285D02*
X109644571Y-84679285D01*
X109287428Y-85429285D02*
X109287428Y-84679285D01*
X108858857Y-85429285D01*
X108858857Y-84679285D01*
X108608857Y-84679285D02*
X108180285Y-84679285D01*
X108394571Y-85429285D02*
X108394571Y-84679285D01*
X107372428Y-85215000D02*
X107015285Y-85215000D01*
X107443857Y-85429285D02*
X107193857Y-84679285D01*
X106943857Y-85429285D01*
X106693857Y-85429285D02*
X106693857Y-84679285D01*
X106515285Y-84679285D01*
X106408142Y-84715000D01*
X106336714Y-84786428D01*
X106301000Y-84857857D01*
X106265285Y-85000714D01*
X106265285Y-85107857D01*
X106301000Y-85250714D01*
X106336714Y-85322142D01*
X106408142Y-85393571D01*
X106515285Y-85429285D01*
X106693857Y-85429285D01*
X105801000Y-84679285D02*
X105658142Y-84679285D01*
X105586714Y-84715000D01*
X105515285Y-84786428D01*
X105479571Y-84929285D01*
X105479571Y-85179285D01*
X105515285Y-85322142D01*
X105586714Y-85393571D01*
X105658142Y-85429285D01*
X105801000Y-85429285D01*
X105872428Y-85393571D01*
X105943857Y-85322142D01*
X105979571Y-85179285D01*
X105979571Y-84929285D01*
X105943857Y-84786428D01*
X105872428Y-84715000D01*
X105801000Y-84679285D01*
X104941571Y-84679285D02*
X104441571Y-85429285D01*
X104441571Y-84679285D02*
X104941571Y-85429285D01*
X103727285Y-85357857D02*
X103763000Y-85393571D01*
X103870142Y-85429285D01*
X103941571Y-85429285D01*
X104048714Y-85393571D01*
X104120142Y-85322142D01*
X104155857Y-85250714D01*
X104191571Y-85107857D01*
X104191571Y-85000714D01*
X104155857Y-84857857D01*
X104120142Y-84786428D01*
X104048714Y-84715000D01*
X103941571Y-84679285D01*
X103870142Y-84679285D01*
X103763000Y-84715000D01*
X103727285Y-84750714D01*
X103048714Y-85429285D02*
X103405857Y-85429285D01*
X103405857Y-84679285D01*
X102419428Y-84679285D02*
X101919428Y-85429285D01*
X101919428Y-84679285D02*
X102419428Y-85429285D01*
X101633714Y-85429285D02*
X101633714Y-84679285D01*
X101455142Y-84679285D01*
X101348000Y-84715000D01*
X101276571Y-84786428D01*
X101240857Y-84857857D01*
X101205142Y-85000714D01*
X101205142Y-85107857D01*
X101240857Y-85250714D01*
X101276571Y-85322142D01*
X101348000Y-85393571D01*
X101455142Y-85429285D01*
X101633714Y-85429285D01*
X100919428Y-85215000D02*
X100562285Y-85215000D01*
X100990857Y-85429285D02*
X100740857Y-84679285D01*
X100490857Y-85429285D01*
X99843714Y-85393571D02*
X99736571Y-85429285D01*
X99558000Y-85429285D01*
X99486571Y-85393571D01*
X99450857Y-85357857D01*
X99415142Y-85286428D01*
X99415142Y-85215000D01*
X99450857Y-85143571D01*
X99486571Y-85107857D01*
X99558000Y-85072142D01*
X99700857Y-85036428D01*
X99772285Y-85000714D01*
X99808000Y-84965000D01*
X99843714Y-84893571D01*
X99843714Y-84822142D01*
X99808000Y-84750714D01*
X99772285Y-84715000D01*
X99700857Y-84679285D01*
X99522285Y-84679285D01*
X99415142Y-84715000D01*
X99093714Y-85429285D02*
X99093714Y-84679285D01*
X98915142Y-84679285D01*
X98808000Y-84715000D01*
X98736571Y-84786428D01*
X98700857Y-84857857D01*
X98665142Y-85000714D01*
X98665142Y-85107857D01*
X98700857Y-85250714D01*
X98736571Y-85322142D01*
X98808000Y-85393571D01*
X98915142Y-85429285D01*
X99093714Y-85429285D01*
X98379428Y-85215000D02*
X98022285Y-85215000D01*
X98450857Y-85429285D02*
X98200857Y-84679285D01*
X97950857Y-85429285D01*
X97285857Y-85393571D02*
X97178714Y-85429285D01*
X97000142Y-85429285D01*
X96928714Y-85393571D01*
X96893000Y-85357857D01*
X96857285Y-85286428D01*
X96857285Y-85215000D01*
X96893000Y-85143571D01*
X96928714Y-85107857D01*
X97000142Y-85072142D01*
X97143000Y-85036428D01*
X97214428Y-85000714D01*
X97250142Y-84965000D01*
X97285857Y-84893571D01*
X97285857Y-84822142D01*
X97250142Y-84750714D01*
X97214428Y-84715000D01*
X97143000Y-84679285D01*
X96964428Y-84679285D01*
X96857285Y-84715000D01*
X96107285Y-85357857D02*
X96143000Y-85393571D01*
X96250142Y-85429285D01*
X96321571Y-85429285D01*
X96428714Y-85393571D01*
X96500142Y-85322142D01*
X96535857Y-85250714D01*
X96571571Y-85107857D01*
X96571571Y-85000714D01*
X96535857Y-84857857D01*
X96500142Y-84786428D01*
X96428714Y-84715000D01*
X96321571Y-84679285D01*
X96250142Y-84679285D01*
X96143000Y-84715000D01*
X96107285Y-84750714D01*
X95428714Y-85429285D02*
X95785857Y-85429285D01*
X95785857Y-84679285D01*
X94424428Y-84715000D02*
X94495857Y-84679285D01*
X94603000Y-84679285D01*
X94710142Y-84715000D01*
X94781571Y-84786428D01*
X94817285Y-84857857D01*
X94853000Y-85000714D01*
X94853000Y-85107857D01*
X94817285Y-85250714D01*
X94781571Y-85322142D01*
X94710142Y-85393571D01*
X94603000Y-85429285D01*
X94531571Y-85429285D01*
X94424428Y-85393571D01*
X94388714Y-85357857D01*
X94388714Y-85107857D01*
X94531571Y-85107857D01*
X94067285Y-85429285D02*
X94067285Y-84679285D01*
X93638714Y-85429285D01*
X93638714Y-84679285D01*
X93281571Y-85429285D02*
X93281571Y-84679285D01*
X93103000Y-84679285D01*
X92995857Y-84715000D01*
X92924428Y-84786428D01*
X92888714Y-84857857D01*
X92853000Y-85000714D01*
X92853000Y-85107857D01*
X92888714Y-85250714D01*
X92924428Y-85322142D01*
X92995857Y-85393571D01*
X93103000Y-85429285D01*
X93281571Y-85429285D01*
X92313000Y-84679285D02*
X92063000Y-85429285D01*
X91813000Y-84679285D01*
X91134428Y-85357857D02*
X91170142Y-85393571D01*
X91277285Y-85429285D01*
X91348714Y-85429285D01*
X91455857Y-85393571D01*
X91527285Y-85322142D01*
X91563000Y-85250714D01*
X91598714Y-85107857D01*
X91598714Y-85000714D01*
X91563000Y-84857857D01*
X91527285Y-84786428D01*
X91455857Y-84715000D01*
X91348714Y-84679285D01*
X91277285Y-84679285D01*
X91170142Y-84715000D01*
X91134428Y-84750714D01*
X90384428Y-85357857D02*
X90420142Y-85393571D01*
X90527285Y-85429285D01*
X90598714Y-85429285D01*
X90705857Y-85393571D01*
X90777285Y-85322142D01*
X90813000Y-85250714D01*
X90848714Y-85107857D01*
X90848714Y-85000714D01*
X90813000Y-84857857D01*
X90777285Y-84786428D01*
X90705857Y-84715000D01*
X90598714Y-84679285D01*
X90527285Y-84679285D01*
X90420142Y-84715000D01*
X90384428Y-84750714D01*
M02*
