M48
; DRILL file {KiCad (5.1.4)-1} date 23/10/2019 00:39:15
; FORMAT={3:3/ absolute / metric / suppress leading zeros}
; #@! TF.CreationDate,2019-10-23T00:39:15+02:00
; #@! TF.GenerationSoftware,Kicad,Pcbnew,(5.1.4)-1
; #@! TF.FileFunction,Plated,1,2,PTH
FMAT,2
METRIC,TZ
T1C0.300
T2C0.400
T3C0.500
T4C0.800
T5C1.000
T6C1.100
T7C1.200
T8C1.500
T9C3.000
%
G90
G05
T1
X41910Y-99060
X46990Y-86360
X48260Y-97790
X49530Y-71120
X49530Y-102870
X53340Y-64770
X54610Y-83820
X55880Y-55880
X58420Y-48260
X60960Y-52070
X60960Y-62230
X60960Y-76200
X60960Y-95250
X62230Y-86360
X64770Y-44450
X64770Y-104140
X66040Y-55880
X67310Y-63500
X68580Y-80010
X68580Y-101600
X69850Y-71120
X69850Y-93980
X71120Y-104140
X73660Y-67310
X74930Y-101600
X76200Y-73660
X76200Y-86360
X78740Y-104140
X80010Y-66040
X80010Y-100330
X81280Y-60960
X81280Y-82550
X82550Y-71120
X82550Y-87630
X83820Y-46990
X85090Y-54610
X85090Y-95250
X86360Y-66040
X86360Y-80010
X87630Y-74930
X91440Y-50800
X91440Y-59690
X93980Y-67310
X93980Y-80010
X95250Y-73660
X96520Y-45720
X96520Y-54610
X99060Y-78740
X100330Y-49530
X100330Y-59690
X101600Y-76200
X104140Y-45720
X104140Y-54610
X104140Y-81280
X107950Y-68580
X109220Y-74930
X111760Y-60960
X111760Y-86360
X113030Y-43180
X113030Y-49530
X114300Y-58420
X116840Y-73660
X116891Y-68656
X118110Y-45720
X120650Y-60960
X120650Y-81280
X121920Y-50800
X124460Y-40640
X127516Y-74737
X127610Y-80112
X128270Y-45720
X128270Y-63500
X129540Y-82550
X132080Y-57150
X133350Y-41910
X133350Y-50800
X134620Y-78740
X138430Y-82550
X139700Y-46990
X139700Y-54610
X139700Y-74930
X140970Y-64770
X144780Y-50800
X144780Y-60960
X144780Y-90170
X146050Y-68580
X149004Y-80132
X149860Y-48260
X149860Y-55880
X151130Y-72390
X151130Y-76835
X151130Y-95250
X153670Y-41910
X154940Y-58420
X156210Y-52070
X156210Y-101600
X160020Y-46990
X160020Y-55880
X160020Y-105410
X161290Y-76200
X162560Y-101600
X163830Y-87630
X165100Y-63500
X165100Y-96520
X166370Y-71120
X166370Y-105410
X167640Y-46990
X168910Y-78740
X168910Y-101600
X170180Y-41910
X171450Y-54610
X172720Y-64770
X172720Y-105410
X173990Y-95250
X175260Y-77470
X175260Y-83820
X177800Y-46990
X177800Y-106680
X180340Y-54610
X181610Y-62230
X181610Y-81280
X184150Y-68580
X184150Y-92710
X186690Y-105410
X187960Y-77470
X187960Y-100330
X189230Y-87630
X190500Y-96520
T2
X76058Y-59560
X77109Y-81816
X78496Y-77681
X92802Y-81837
X97040Y-77711
X98630Y-81837
X101526Y-65654
X122936Y-59614
X123698Y-77688
X137030Y-66007
X139022Y-59593
X147721Y-60960
X155278Y-85971
T4
X57673Y-68072
X57673Y-72572
X64173Y-68072
X64173Y-72572
X171973Y-68072
X171973Y-72572
X178473Y-68072
X178473Y-72572
T5
X50673Y-78322
X50673Y-80822
X50673Y-83322
X58423Y-90472
X60923Y-90472
X63423Y-90472
X164973Y-78322
X164973Y-80822
X164973Y-83322
X172723Y-90472
X175223Y-90472
X177723Y-90472
X114790Y-71356
X114790Y-78976
X114790Y-81516
X114790Y-84056
X114790Y-86596
X117330Y-71356
X117330Y-86596
X119870Y-71356
X119870Y-86596
X122410Y-71356
X122410Y-86596
X124950Y-71356
X124950Y-86596
X127490Y-71356
X127490Y-86596
X130030Y-71356
X130030Y-86596
X131300Y-84056
X132570Y-71356
X132570Y-86596
X133840Y-84056
X135110Y-71356
X135110Y-86596
X137650Y-71356
X137650Y-86596
X140190Y-71356
X140190Y-86596
X142730Y-71356
X142730Y-86596
X145270Y-72626
X145270Y-75166
X145270Y-77706
X145270Y-80246
X145270Y-82786
X145270Y-85326
X91313Y-86614
X93853Y-86614
X96393Y-86614
X98933Y-86614
X101473Y-86614
X104013Y-86614
X106553Y-86614
X109093Y-86614
X173990Y-57658
X176530Y-57658
X59436Y-57785
X61976Y-57785
X114173Y-62902
X114173Y-65532
X116713Y-62992
X116713Y-65532
X119253Y-62992
X119253Y-65442
X121793Y-62992
X121793Y-65502
X68453Y-42672
X70993Y-42672
X73533Y-42672
X76073Y-42672
X78613Y-42672
X174269Y-48971
X174269Y-51511
T6
X154813Y-92202
X154813Y-96702
X161313Y-92202
X161313Y-96702
X73533Y-92202
X73533Y-96702
X80033Y-92202
X80033Y-96702
X176403Y-98552
X176403Y-103052
X182903Y-98552
X182903Y-103052
X53213Y-98552
X53213Y-103052
X59713Y-98552
X59713Y-103052
T7
X136952Y-42672
X142032Y-42672
X147112Y-42672
X88059Y-42654
X93139Y-42654
X98219Y-42654
T8
X53173Y-74172
X53173Y-87472
X68673Y-74172
X68673Y-87472
X167473Y-74172
X167473Y-87472
X182973Y-74172
X182973Y-87472
T9
X43053Y-103632
X60985Y-42672
X110795Y-54305
X117995Y-54305
X125195Y-54305
X175006Y-42672
X192913Y-103632
T3
G00X159329Y-42672
M15
G01X159029Y-42672
M16
G05
G00X162329Y-42672
M15
G01X162029Y-42672
M16
G05
G00X165329Y-42672
M15
G01X165029Y-42672
M16
G05
T4
G00X167097Y-49910
M15
G01X165897Y-49910
M16
G05
G00X167097Y-54610
M15
G01X165897Y-54610
M16
G05
G00X167097Y-59310
M15
G01X165897Y-59310
M16
G05
G00X70577Y-49910
M15
G01X69377Y-49910
M16
G05
G00X70577Y-54610
M15
G01X69377Y-54610
M16
G05
G00X70577Y-59310
M15
G01X69377Y-59310
M16
G05
T0
M30
